<?xml version="1.0" standalone="no"?><!DOCTYPE svg PUBLIC "-//W3C//DTD SVG 1.1//EN" "http://www.w3.org/Graphics/SVG/1.1/DTD/svg11.dtd"><svg t="1575202225063" class="icon" viewBox="0 0 1024 1024" version="1.1" xmlns="http://www.w3.org/2000/svg" p-id="2767" xmlns:xlink="http://www.w3.org/1999/xlink" width="64" height="64"><defs><style type="text/css"></style></defs><path d="M887.466667 627.2c-2.133333 0-2.133333 0 0 0-6.4-4.266667-12.8-10.666667-12.8-19.2V192c0-12.8-8.533333-21.333333-21.333334-21.333333h-177.066666c-38.4 0-72.533333-25.6-83.2-64-10.666667-40.533333-46.933333-66.133333-87.466667-64-36.266667 2.133333-66.133333 29.866667-76.8 66.133333C418.133333 145.066667 384 170.666667 347.733333 170.666667H170.666667c-12.8 0-21.333333 8.533333-21.333334 21.333333v768c0 12.8 8.533333 21.333333 21.333334 21.333333h352c8.533333 0 14.933333 4.266667 19.2 10.666667 6.4 14.933333-2.133333 29.866667-19.2 29.866667H170.666667c-36.266667 0-64-27.733333-64-64V192c0-36.266667 27.733333-64 64-64h177.066666c19.2 0 36.266667-12.8 40.533334-32 14.933333-55.466667 64-96 123.733333-96s108.8 40.533333 123.733333 96c4.266667 19.2 21.333333 32 40.533334 32H853.333333c36.266667 0 64 27.733333 64 64v416c0 14.933333-17.066667 25.6-29.866666 19.2zM256 746.666667h256c14.933333 0 25.6 14.933333 19.2 29.866666-2.133333 8.533333-10.666667 12.8-19.2 12.8H256c-12.8 0-21.333333-8.533333-21.333333-21.333333s8.533333-21.333333 21.333333-21.333333z m0-192h426.666667c12.8 0 21.333333 8.533333 21.333333 21.333333s-8.533333 21.333333-21.333333 21.333333H256c-12.8 0-21.333333-8.533333-21.333333-21.333333s8.533333-21.333333 21.333333-21.333333zM469.333333 170.666667c-12.8 0-21.333333-8.533333-21.333333-21.333334s8.533333-21.333333 21.333333-21.333333h85.333334c12.8 0 21.333333 8.533333 21.333333 21.333333s-8.533333 21.333333-21.333333 21.333334h-85.333334z m320 213.333333c0 12.8-8.533333 21.333333-21.333333 21.333333H256c-12.8 0-21.333333-8.533333-21.333333-21.333333s8.533333-21.333333 21.333333-21.333333h512c12.8 0 21.333333 8.533333 21.333333 21.333333z m-121.6 392.533333c8.533333-8.533333 21.333333-8.533333 29.866667 0l68.266667 68.266667 68.266666-68.266667c8.533333-8.533333 21.333333-8.533333 29.866667 0 8.533333 8.533333 8.533333 21.333333 0 29.866667L797.866667 874.666667l68.266666 68.266666c8.533333 8.533333 8.533333 21.333333 0 29.866667-8.533333 8.533333-21.333333 8.533333-29.866666 0L768 904.533333l-68.266667 68.266667c-8.533333 8.533333-21.333333 8.533333-29.866666 0-8.533333-8.533333-8.533333-21.333333 0-29.866667l68.266666-68.266666-68.266666-68.266667c-8.533333-8.533333-8.533333-23.466667-2.133334-29.866667z" fill="#666767" p-id="2768"></path></svg>