<?xml version="1.0" standalone="no"?><!DOCTYPE svg PUBLIC "-//W3C//DTD SVG 1.1//EN" "http://www.w3.org/Graphics/SVG/1.1/DTD/svg11.dtd"><svg t="1575202219526" class="icon" viewBox="0 0 1024 1024" version="1.1" xmlns="http://www.w3.org/2000/svg" p-id="2632" xmlns:xlink="http://www.w3.org/1999/xlink" width="64" height="64"><defs><style type="text/css"></style></defs><path d="M853.333333 1024H170.666667c-36.266667 0-64-27.733333-64-64V192c0-36.266667 27.733333-64 64-64h177.066666c19.2 0 36.266667-12.8 40.533334-32 14.933333-55.466667 64-96 123.733333-96s108.8 40.533333 123.733333 96c4.266667 19.2 21.333333 32 40.533334 32H853.333333c36.266667 0 64 27.733333 64 64v768c0 36.266667-27.733333 64-64 64z m21.333334-832c0-12.8-8.533333-21.333333-21.333334-21.333333h-177.066666c-38.4 0-72.533333-25.6-83.2-64s-42.666667-64-83.2-64c-38.4 0-72.533333 25.6-83.2 64s-42.666667 64-83.2 64H170.666667c-12.8 0-21.333333 8.533333-21.333334 21.333333v768c0 12.8 8.533333 21.333333 21.333334 21.333333h682.666666c12.8 0 21.333333-8.533333 21.333334-21.333333V192z m-106.666667 213.333333H256c-12.8 0-21.333333-8.533333-21.333333-21.333333s8.533333-21.333333 21.333333-21.333333h512c12.8 0 21.333333 8.533333 21.333333 21.333333s-8.533333 21.333333-21.333333 21.333333zM554.666667 170.666667h-85.333334c-12.8 0-21.333333-8.533333-21.333333-21.333334s8.533333-21.333333 21.333333-21.333333h85.333334c12.8 0 21.333333 8.533333 21.333333 21.333333s-8.533333 21.333333-21.333333 21.333334zM256 554.666667h426.666667c12.8 0 21.333333 8.533333 21.333333 21.333333s-8.533333 21.333333-21.333333 21.333333H256c-12.8 0-21.333333-8.533333-21.333333-21.333333s8.533333-21.333333 21.333333-21.333333z m0 192h341.333333c12.8 0 21.333333 8.533333 21.333334 21.333333s-8.533333 21.333333-21.333334 21.333333H256c-12.8 0-21.333333-8.533333-21.333333-21.333333s8.533333-21.333333 21.333333-21.333333z" fill="#666767" p-id="2633"></path></svg>