<?xml version="1.0" standalone="no"?><!DOCTYPE svg PUBLIC "-//W3C//DTD SVG 1.1//EN" "http://www.w3.org/Graphics/SVG/1.1/DTD/svg11.dtd"><svg t="1573723843947" class="icon" viewBox="0 0 1024 1024" version="1.1" xmlns="http://www.w3.org/2000/svg" p-id="2693" xmlns:xlink="http://www.w3.org/1999/xlink" width="64" height="64"><defs><style type="text/css"></style></defs><path d="M718.138119 234.001489c-20.241171-33.791746-45.648499-59.114383-81.134066-76.052601-33.791746-16.853527-72.664957-25.322637-118.313457-25.322637-72.664957 0-131.864031 20.241171-174.124886 62.502026h-1.693822C299.001902 235.610619 275.288396 289.728228 275.288396 353.924076c0 5.081466 1.693822 8.469109 5.081466 11.772062 3.387644 3.387644 6.775287 5.081466 11.772062 5.081465h121.7011c5.081466 0 8.469109-1.693822 11.772062-5.081465 3.387644-3.387644 5.081466-6.775287 5.081465-11.772062 0-21.934993 8.469109-38.873211 23.628815-52.423787 13.550575-13.550575 33.791746-20.241171 57.505252-20.241171 23.628815 0 42.260855 5.081466 57.505252 16.853528 11.772062 11.772062 16.853527 21.934993 18.547349 37.179389 0 10.162931-3.387644 20.241171-6.775287 28.710281-8.469109 10.162931-27.016459 30.404102-59.199074 57.505252h1.693822c-35.485568 30.404102-60.892896 64.195848-77.746423 99.766107-16.853527 37.17939-23.628815 76.052601-23.628815 120.007278v20.241171c0 5.081466 0 8.469109 5.081465 11.856753 3.387644 3.387644 6.775287 5.081466 11.856753 5.081465h125.088744c3.387644 0 8.469109-1.693822 11.856753-5.081465s5.081466-6.775287 5.081466-10.162931c0-28.71028 3.387644-49.036143 8.469109-64.195848v-1.693822c3.387644-15.159706 8.469109-25.322637 13.550575-32.097924l1.693822-1.693822c6.775287-10.162931 21.934993-27.016459 47.34232-50.729965 28.71028-25.322637 47.342321-45.648499 55.81143-57.505251 13.465884-18.547349 23.628815-38.873211 30.404102-57.505252 6.775287-20.241171 10.162931-40.567033 10.162932-59.114383-0.084691-37.094699-10.247622-72.580266-30.488794-104.67819zM572.808204 725.802663c-18.547349-18.547349-42.260855-27.016459-69.277313-27.016458-25.322637 0-49.036143 8.469109-67.583492 27.016458h-1.693822c-18.547349 20.241171-28.71028 42.260855-28.71028 69.277314 0 25.322637 10.162931 49.036143 30.404102 69.277314 18.547349 16.853527 42.260855 27.016459 67.583492 27.016458 27.016459 0 50.729964-10.162931 70.971135-27.016458v-1.693822c18.547349-18.547349 27.016459-42.260855 27.016459-67.583492 0-27.016459-8.469109-49.036143-27.016459-69.277314h-1.693822z" p-id="2694" fill="#bfbfbf"></path></svg>