<?xml version="1.0" standalone="no"?><!DOCTYPE svg PUBLIC "-//W3C//DTD SVG 1.1//EN" "http://www.w3.org/Graphics/SVG/1.1/DTD/svg11.dtd"><svg t="1575464910861" class="icon" viewBox="0 0 1024 1024" version="1.1" xmlns="http://www.w3.org/2000/svg" p-id="4848" xmlns:xlink="http://www.w3.org/1999/xlink" width="64" height="64"><defs><style type="text/css"></style></defs><path d="M982.848 329.152l0 146.272q0 14.848-10.848 25.728t-25.728 10.848l-36.576 0q-14.848 0-25.728-10.848t-10.848-25.728l0-146.272q0-60.576-42.848-103.424t-103.424-42.848-103.424 42.848-42.848 103.424l0 109.728 54.848 0q22.848 0 38.848 16t16 38.848l0 329.152q0 22.848-16 38.848t-38.848 16l-548.576 0q-22.848 0-38.848-16t-16-38.848l0-329.152q0-22.848 16-38.848t38.848-16l384 0 0-109.728q0-105.728 75.136-180.864t180.864-75.136 180.864 75.136 75.136 180.864z" p-id="4849"></path></svg>